<svg id="visual" viewBox="0 0 960 300" width="960" height="300" xmlns="http://www.w3.org/2000/svg" xmlns:xlink="http://www.w3.org/1999/xlink" version="1.1"><rect x="0" y="0" width="960" height="300" fill="#FFFFFF"></rect><path d="M0 239L7 237.2C14 235.3 28 231.7 41.8 228.2C55.7 224.7 69.3 221.3 83.2 218.5C97 215.7 111 213.3 125 212.3C139 211.3 153 211.7 167 215.5C181 219.3 195 226.7 208.8 231.3C222.7 236 236.3 238 250.2 237.2C264 236.3 278 232.7 292 229C306 225.3 320 221.7 334 218.5C348 215.3 362 212.7 375.8 215.3C389.7 218 403.3 226 417.2 230.3C431 234.7 445 235.3 459 232.7C473 230 487 224 501 224.8C515 225.7 529 233.3 542.8 232.3C556.7 231.3 570.3 221.7 584.2 218.2C598 214.7 612 217.3 626 222.3C640 227.3 654 234.7 668 237C682 239.3 696 236.7 709.8 233.7C723.7 230.7 737.3 227.3 751.2 225.7C765 224 779 224 793 226.7C807 229.3 821 234.7 835 235.3C849 236 863 232 876.8 231.5C890.7 231 904.3 234 918.2 236.2C932 238.3 946 239.7 953 240.3L960 241L960 301L953 301C946 301 932 301 918.2 301C904.3 301 890.7 301 876.8 301C863 301 849 301 835 301C821 301 807 301 793 301C779 301 765 301 751.2 301C737.3 301 723.7 301 709.8 301C696 301 682 301 668 301C654 301 640 301 626 301C612 301 598 301 584.2 301C570.3 301 556.7 301 542.8 301C529 301 515 301 501 301C487 301 473 301 459 301C445 301 431 301 417.2 301C403.3 301 389.7 301 375.8 301C362 301 348 301 334 301C320 301 306 301 292 301C278 301 264 301 250.2 301C236.3 301 222.7 301 208.8 301C195 301 181 301 167 301C153 301 139 301 125 301C111 301 97 301 83.2 301C69.3 301 55.7 301 41.8 301C28 301 14 301 7 301L0 301Z" fill="#888277"></path><path d="M0 248L7 244.2C14 240.3 28 232.7 41.8 230.5C55.7 228.3 69.3 231.7 83.2 232.7C97 233.7 111 232.3 125 231C139 229.7 153 228.3 167 230C181 231.7 195 236.3 208.8 236C222.7 235.7 236.3 230.3 250.2 229.3C264 228.3 278 231.7 292 234.8C306 238 320 241 334 241.8C348 242.7 362 241.3 375.8 238.3C389.7 235.3 403.3 230.7 417.2 230C431 229.3 445 232.7 459 235.3C473 238 487 240 501 242.5C515 245 529 248 542.8 246.8C556.7 245.7 570.3 240.3 584.2 235.2C598 230 612 225 626 224.2C640 223.3 654 226.7 668 227.3C682 228 696 226 709.8 228C723.7 230 737.3 236 751.2 237.7C765 239.3 779 236.7 793 236.7C807 236.7 821 239.3 835 238.2C849 237 863 232 876.8 233.3C890.7 234.7 904.3 242.3 918.2 244C932 245.7 946 241.3 953 239.2L960 237L960 301L953 301C946 301 932 301 918.2 301C904.3 301 890.7 301 876.8 301C863 301 849 301 835 301C821 301 807 301 793 301C779 301 765 301 751.2 301C737.3 301 723.7 301 709.8 301C696 301 682 301 668 301C654 301 640 301 626 301C612 301 598 301 584.2 301C570.3 301 556.7 301 542.8 301C529 301 515 301 501 301C487 301 473 301 459 301C445 301 431 301 417.2 301C403.3 301 389.7 301 375.8 301C362 301 348 301 334 301C320 301 306 301 292 301C278 301 264 301 250.2 301C236.3 301 222.7 301 208.8 301C195 301 181 301 167 301C153 301 139 301 125 301C111 301 97 301 83.2 301C69.3 301 55.7 301 41.8 301C28 301 14 301 7 301L0 301Z" fill="#928c82"></path><path d="M0 244L7 246C14 248 28 252 41.8 253C55.7 254 69.3 252 83.2 251.8C97 251.7 111 253.3 125 250.3C139 247.3 153 239.7 167 235.3C181 231 195 230 208.8 233.2C222.7 236.3 236.3 243.7 250.2 248C264 252.3 278 253.7 292 252.7C306 251.7 320 248.3 334 247C348 245.7 362 246.3 375.8 247.2C389.7 248 403.3 249 417.2 249.5C431 250 445 250 459 250.3C473 250.7 487 251.3 501 252.2C515 253 529 254 542.8 254C556.7 254 570.3 253 584.2 249.7C598 246.3 612 240.7 626 236.8C640 233 654 231 668 233.7C682 236.3 696 243.7 709.8 243.8C723.7 244 737.3 237 751.2 238.3C765 239.7 779 249.3 793 250.8C807 252.3 821 245.7 835 242.2C849 238.7 863 238.3 876.8 237.3C890.7 236.3 904.3 234.7 918.2 234.5C932 234.3 946 235.7 953 236.3L960 237L960 301L953 301C946 301 932 301 918.2 301C904.3 301 890.7 301 876.8 301C863 301 849 301 835 301C821 301 807 301 793 301C779 301 765 301 751.2 301C737.3 301 723.7 301 709.8 301C696 301 682 301 668 301C654 301 640 301 626 301C612 301 598 301 584.2 301C570.3 301 556.7 301 542.8 301C529 301 515 301 501 301C487 301 473 301 459 301C445 301 431 301 417.2 301C403.3 301 389.7 301 375.8 301C362 301 348 301 334 301C320 301 306 301 292 301C278 301 264 301 250.2 301C236.3 301 222.7 301 208.8 301C195 301 181 301 167 301C153 301 139 301 125 301C111 301 97 301 83.2 301C69.3 301 55.7 301 41.8 301C28 301 14 301 7 301L0 301Z" fill="#9b968e"></path><path d="M0 256L7 257.7C14 259.3 28 262.7 41.8 261C55.7 259.3 69.3 252.7 83.2 252.5C97 252.3 111 258.7 125 260C139 261.3 153 257.7 167 255.7C181 253.7 195 253.3 208.8 254.8C222.7 256.3 236.3 259.7 250.2 259.5C264 259.3 278 255.7 292 251.8C306 248 320 244 334 245.3C348 246.7 362 253.3 375.8 254.5C389.7 255.7 403.3 251.3 417.2 250.8C431 250.3 445 253.7 459 254C473 254.3 487 251.7 501 249C515 246.3 529 243.7 542.8 244.5C556.7 245.3 570.3 249.7 584.2 251.7C598 253.7 612 253.3 626 251.5C640 249.7 654 246.3 668 245.8C682 245.3 696 247.7 709.8 247.3C723.7 247 737.3 244 751.2 245.3C765 246.7 779 252.3 793 254.3C807 256.3 821 254.7 835 254.7C849 254.7 863 256.3 876.8 254.7C890.7 253 904.3 248 918.2 246.8C932 245.7 946 248.3 953 249.7L960 251L960 301L953 301C946 301 932 301 918.2 301C904.3 301 890.7 301 876.8 301C863 301 849 301 835 301C821 301 807 301 793 301C779 301 765 301 751.2 301C737.3 301 723.7 301 709.8 301C696 301 682 301 668 301C654 301 640 301 626 301C612 301 598 301 584.2 301C570.3 301 556.7 301 542.8 301C529 301 515 301 501 301C487 301 473 301 459 301C445 301 431 301 417.2 301C403.3 301 389.7 301 375.8 301C362 301 348 301 334 301C320 301 306 301 292 301C278 301 264 301 250.2 301C236.3 301 222.7 301 208.8 301C195 301 181 301 167 301C153 301 139 301 125 301C111 301 97 301 83.2 301C69.3 301 55.7 301 41.8 301C28 301 14 301 7 301L0 301Z" fill="#a5a19a"></path><path d="M0 250L7 252C14 254 28 258 41.8 259.8C55.7 261.7 69.3 261.3 83.2 263.3C97 265.3 111 269.7 125 269.5C139 269.3 153 264.7 167 263.5C181 262.3 195 264.7 208.8 264.3C222.7 264 236.3 261 250.2 261.2C264 261.3 278 264.7 292 266.5C306 268.3 320 268.7 334 267C348 265.3 362 261.7 375.8 259.7C389.7 257.7 403.3 257.3 417.2 256.8C431 256.3 445 255.7 459 258.2C473 260.7 487 266.3 501 266.7C515 267 529 262 542.8 262.2C556.7 262.3 570.3 267.7 584.2 268.8C598 270 612 267 626 265.2C640 263.3 654 262.7 668 260.8C682 259 696 256 709.8 257.2C723.7 258.3 737.3 263.7 751.2 264.7C765 265.7 779 262.3 793 261.5C807 260.7 821 262.3 835 263.8C849 265.3 863 266.7 876.8 264.7C890.7 262.7 904.3 257.3 918.2 257.2C932 257 946 262 953 264.5L960 267L960 301L953 301C946 301 932 301 918.2 301C904.3 301 890.7 301 876.8 301C863 301 849 301 835 301C821 301 807 301 793 301C779 301 765 301 751.2 301C737.3 301 723.7 301 709.8 301C696 301 682 301 668 301C654 301 640 301 626 301C612 301 598 301 584.2 301C570.3 301 556.7 301 542.8 301C529 301 515 301 501 301C487 301 473 301 459 301C445 301 431 301 417.2 301C403.3 301 389.7 301 375.8 301C362 301 348 301 334 301C320 301 306 301 292 301C278 301 264 301 250.2 301C236.3 301 222.7 301 208.8 301C195 301 181 301 167 301C153 301 139 301 125 301C111 301 97 301 83.2 301C69.3 301 55.7 301 41.8 301C28 301 14 301 7 301L0 301Z" fill="#afaba6"></path><path d="M0 266L7 266.2C14 266.3 28 266.7 41.8 268.5C55.7 270.3 69.3 273.7 83.2 273.7C97 273.7 111 270.3 125 270.2C139 270 153 273 167 275.3C181 277.7 195 279.3 208.8 278.8C222.7 278.3 236.3 275.7 250.2 273.3C264 271 278 269 292 269C306 269 320 271 334 273.3C348 275.7 362 278.3 375.8 278.5C389.7 278.7 403.3 276.3 417.2 274.3C431 272.3 445 270.7 459 270C473 269.3 487 269.7 501 269.8C515 270 529 270 542.8 271.7C556.7 273.3 570.3 276.7 584.2 278.5C598 280.3 612 280.7 626 279.5C640 278.3 654 275.7 668 275.8C682 276 696 279 709.8 279.2C723.7 279.3 737.3 276.7 751.2 273.3C765 270 779 266 793 266.3C807 266.7 821 271.3 835 273.2C849 275 863 274 876.8 273.8C890.7 273.7 904.3 274.3 918.2 274C932 273.7 946 272.3 953 271.7L960 271L960 301L953 301C946 301 932 301 918.2 301C904.3 301 890.7 301 876.8 301C863 301 849 301 835 301C821 301 807 301 793 301C779 301 765 301 751.2 301C737.3 301 723.7 301 709.8 301C696 301 682 301 668 301C654 301 640 301 626 301C612 301 598 301 584.2 301C570.3 301 556.7 301 542.8 301C529 301 515 301 501 301C487 301 473 301 459 301C445 301 431 301 417.2 301C403.3 301 389.7 301 375.8 301C362 301 348 301 334 301C320 301 306 301 292 301C278 301 264 301 250.2 301C236.3 301 222.7 301 208.8 301C195 301 181 301 167 301C153 301 139 301 125 301C111 301 97 301 83.2 301C69.3 301 55.7 301 41.8 301C28 301 14 301 7 301L0 301Z" fill="#b8b6b3"></path><path d="M0 279L7 277.3C14 275.7 28 272.3 41.8 271.3C55.7 270.3 69.3 271.7 83.2 274.2C97 276.7 111 280.3 125 281.8C139 283.3 153 282.7 167 283.3C181 284 195 286 208.8 286C222.7 286 236.3 284 250.2 281.7C264 279.3 278 276.7 292 277.5C306 278.3 320 282.7 334 283C348 283.3 362 279.7 375.8 279.2C389.7 278.7 403.3 281.3 417.2 282.7C431 284 445 284 459 284.2C473 284.3 487 284.7 501 285.8C515 287 529 289 542.8 287.3C556.7 285.7 570.3 280.3 584.2 278.3C598 276.3 612 277.7 626 277C640 276.3 654 273.7 668 272.5C682 271.3 696 271.7 709.8 274.2C723.7 276.7 737.3 281.3 751.2 281C765 280.7 779 275.3 793 275.8C807 276.3 821 282.7 835 284.8C849 287 863 285 876.8 282.2C890.7 279.3 904.3 275.7 918.2 275.3C932 275 946 278 953 279.5L960 281L960 301L953 301C946 301 932 301 918.2 301C904.3 301 890.7 301 876.8 301C863 301 849 301 835 301C821 301 807 301 793 301C779 301 765 301 751.2 301C737.3 301 723.7 301 709.8 301C696 301 682 301 668 301C654 301 640 301 626 301C612 301 598 301 584.2 301C570.3 301 556.7 301 542.8 301C529 301 515 301 501 301C487 301 473 301 459 301C445 301 431 301 417.2 301C403.3 301 389.7 301 375.8 301C362 301 348 301 334 301C320 301 306 301 292 301C278 301 264 301 250.2 301C236.3 301 222.7 301 208.8 301C195 301 181 301 167 301C153 301 139 301 125 301C111 301 97 301 83.2 301C69.3 301 55.7 301 41.8 301C28 301 14 301 7 301L0 301Z" fill="#c2c1bf"></path><path d="M0 285L7 285.2C14 285.3 28 285.7 41.8 286.3C55.7 287 69.3 288 83.2 286.8C97 285.7 111 282.3 125 281.3C139 280.3 153 281.7 167 284.5C181 287.3 195 291.7 208.8 291.3C222.7 291 236.3 286 250.2 284.2C264 282.3 278 283.7 292 285.3C306 287 320 289 334 290.8C348 292.7 362 294.3 375.8 292.5C389.7 290.7 403.3 285.3 417.2 285C431 284.7 445 289.3 459 291.7C473 294 487 294 501 294.8C515 295.7 529 297.3 542.8 295.5C556.7 293.7 570.3 288.3 584.2 288C598 287.7 612 292.3 626 292.7C640 293 654 289 668 288C682 287 696 289 709.8 288.2C723.7 287.3 737.3 283.7 751.2 284.8C765 286 779 292 793 292.8C807 293.7 821 289.3 835 288.8C849 288.3 863 291.7 876.8 293.3C890.7 295 904.3 295 918.2 294.8C932 294.7 946 294.3 953 294.2L960 294L960 301L953 301C946 301 932 301 918.2 301C904.3 301 890.7 301 876.8 301C863 301 849 301 835 301C821 301 807 301 793 301C779 301 765 301 751.2 301C737.3 301 723.7 301 709.8 301C696 301 682 301 668 301C654 301 640 301 626 301C612 301 598 301 584.2 301C570.3 301 556.7 301 542.8 301C529 301 515 301 501 301C487 301 473 301 459 301C445 301 431 301 417.2 301C403.3 301 389.7 301 375.8 301C362 301 348 301 334 301C320 301 306 301 292 301C278 301 264 301 250.2 301C236.3 301 222.7 301 208.8 301C195 301 181 301 167 301C153 301 139 301 125 301C111 301 97 301 83.2 301C69.3 301 55.7 301 41.8 301C28 301 14 301 7 301L0 301Z" fill="#cccccc"></path></svg>